<?xml version="1.0" standalone="no"?>
<!DOCTYPE svg PUBLIC "-//W3C//DTD SVG 20010904//EN"
 "http://www.w3.org/TR/2001/REC-SVG-20010904/DTD/svg10.dtd">
<svg version="1.0" xmlns="http://www.w3.org/2000/svg"
 width="1080.000000pt" height="1080.000000pt" viewBox="0 0 1080.000000 1080.000000"
 preserveAspectRatio="xMidYMid meet">

<g transform="translate(0.000000,1080.000000) scale(0.100000,-0.100000)"
fill="#000000" stroke="none">
<path d="M3173 9616 l-28 -24 -5 -319 c-5 -308 -6 -319 -28 -366 -13 -26 -40
-61 -60 -77 -69 -57 -94 -60 -546 -60 -237 0 -449 -5 -501 -11 -224 -27 -449
-137 -625 -306 -133 -126 -229 -272 -295 -446 -59 -158 -55 46 -55 -3041 0
-1920 3 -2842 11 -2882 24 -138 111 -338 194 -449 60 -80 176 -197 253 -256
129 -97 336 -186 489 -208 101 -15 6745 -15 6846 0 153 22 361 111 489 208 77
59 192 175 253 256 83 110 170 311 194 449 8 40 11 962 11 2882 0 2548 -1
2831 -16 2900 -20 97 -51 180 -109 292 -166 321 -503 559 -850 601 -52 6 -264
11 -501 11 -452 0 -477 3 -546 60 -20 16 -47 51 -60 77 -22 47 -23 58 -28 366
l-5 319 -28 24 c-41 35 -95 33 -133 -7 l-29 -30 -5 -317 c-5 -309 -6 -318 -29
-365 -29 -59 -85 -102 -152 -116 -70 -15 -3688 -15 -3758 0 -67 14 -123 57
-152 116 -23 47 -24 56 -29 365 l-5 317 -29 30 c-38 40 -92 42 -133 7z m-171
-1069 c50 -25 82 -59 110 -115 22 -44 23 -61 26 -274 l4 -227 34 -31 c47 -41
86 -40 130 4 l34 34 0 209 c0 246 9 292 70 353 75 75 -73 70 1990 70 2063 0
1915 5 1990 -70 61 -61 70 -107 70 -353 l0 -209 34 -34 c44 -44 83 -45 130 -4
l34 31 4 227 c3 213 4 230 26 274 28 56 60 90 110 115 34 17 73 18 484 21 445
3 448 3 557 -22 358 -81 610 -324 709 -684 l27 -97 0 -480 0 -481 -26 -49
c-32 -62 -93 -110 -159 -124 -72 -16 -7908 -16 -7980 0 -66 14 -127 62 -159
124 l-26 49 0 481 0 480 27 97 c98 357 349 601 701 683 100 24 109 24 557 22
420 -2 458 -3 492 -20z m6417 -2143 c34 -10 66 -29 91 -54 76 -76 71 93 67
-2171 l-3 -2024 -22 -80 c-29 -103 -59 -178 -95 -240 -140 -241 -330 -383
-604 -453 l-108 -27 -3345 0 -3345 0 -108 27 c-362 92 -594 323 -699 693 l-22
80 -3 2024 c-4 2264 -9 2095 67 2171 75 75 -305 69 4106 69 3564 1 3976 -1
4023 -15z"/>
<path d="M2830 4845 l0 -315 450 0 450 0 0 315 0 315 -450 0 -450 0 0 -315z"/>
<path d="M4970 4845 l0 -315 450 0 450 0 0 315 0 315 -450 0 -450 0 0 -315z"/>
<path d="M7110 4845 l0 -315 450 0 450 0 0 315 0 315 -450 0 -450 0 0 -315z"/>
<path d="M2830 2935 l0 -315 450 0 450 0 0 315 0 315 -450 0 -450 0 0 -315z"/>
<path d="M4970 2935 l0 -315 450 0 450 0 0 315 0 315 -450 0 -450 0 0 -315z"/>
<path d="M7110 2935 l0 -315 450 0 450 0 0 315 0 315 -450 0 -450 0 0 -315z"/>
</g>
</svg>
