<?xml version="1.0" standalone="no"?>
<!DOCTYPE svg PUBLIC "-//W3C//DTD SVG 20010904//EN"
 "http://www.w3.org/TR/2001/REC-SVG-20010904/DTD/svg10.dtd">
<svg version="1.0" xmlns="http://www.w3.org/2000/svg"
 width="1080.000000pt" height="1080.000000pt" viewBox="0 0 1080.000000 1080.000000"
 preserveAspectRatio="xMidYMid meet">

<g transform="translate(0.000000,1080.000000) scale(0.100000,-0.100000)"
fill="#000000" stroke="none">
<path d="M3075 10034 c-58 -20 -112 -68 -143 -128 l-27 -51 -3 -683 c-2 -450
1 -696 8 -722 17 -64 69 -130 130 -164 137 -77 314 -7 365 143 13 38 15 140
15 721 0 769 3 738 -80 820 -73 74 -172 97 -265 64z"/>
<path d="M7351 10033 c-26 -9 -65 -36 -91 -62 -83 -83 -80 -51 -80 -825 l0
-681 26 -55 c32 -69 56 -95 119 -128 95 -50 230 -27 302 50 12 12 33 48 47 78
l26 55 0 681 c0 774 3 742 -80 824 -74 75 -171 97 -269 63z"/>
<path d="M1805 9200 c-194 -26 -368 -153 -455 -334 -76 -158 -70 188 -68
-3898 l3 -3673 30 -85 c56 -162 165 -288 310 -359 137 -66 -163 -61 3717 -59
l3523 3 70 25 c196 69 340 231 395 446 20 76 20 121 20 3734 0 3607 0 3658
-20 3734 -26 104 -82 207 -153 283 -71 75 -145 123 -249 157 l-77 26 -385 0
-386 0 0 -100 0 -99 388 -3 387 -3 58 -27 c114 -53 211 -175 236 -296 7 -35
11 -249 11 -642 0 -577 0 -590 -20 -610 -20 -20 -33 -20 -3825 -20 -3792 0
-3805 0 -3825 20 -20 20 -20 33 -20 610 0 393 4 607 11 642 25 121 122 243
236 296 l58 27 378 3 377 3 0 104 0 105 -332 -1 c-183 -1 -360 -5 -393 -9z
m7337 -2017 c17 -16 18 -119 18 -2908 0 -1913 -3 -2911 -10 -2946 -15 -78 -55
-153 -114 -213 -61 -63 -129 -100 -211 -115 -83 -16 -6937 -16 -7020 0 -153
28 -279 148 -319 304 -14 53 -16 370 -16 2959 0 2684 1 2901 17 2918 16 17
148 18 3826 18 3532 0 3812 -1 3829 -17z"/>
<path d="M5786 4685 c-801 -837 -1064 -1105 -1082 -1105 -17 0 -114 95 -381
373 -197 204 -361 372 -365 372 -11 0 -409 -419 -405 -426 1 -4 260 -275 576
-604 l574 -597 87 88 c48 49 624 648 1279 1332 l1192 1243 -32 37 c-57 65
-373 392 -379 392 -3 -1 -481 -498 -1064 -1105z"/>
<path d="M3800 9105 l0 -105 1500 0 1500 0 0 105 0 105 -1500 0 -1500 0 0
-105z"/>
</g>
</svg>
