<?xml version="1.0" standalone="no"?>
<!DOCTYPE svg PUBLIC "-//W3C//DTD SVG 20010904//EN"
 "http://www.w3.org/TR/2001/REC-SVG-20010904/DTD/svg10.dtd">
<svg version="1.0" xmlns="http://www.w3.org/2000/svg"
 width="1080.000000pt" height="1080.000000pt" viewBox="0 0 1080.000000 1080.000000"
 preserveAspectRatio="xMidYMid meet">

<g transform="translate(0.000000,1080.000000) scale(0.100000,-0.100000)"
fill="#000000" stroke="none">
<path d="M1113 9750 c-84 -51 -79 -173 9 -221 9 -5 290 -90 625 -190 334 -99
618 -187 631 -195 13 -8 27 -26 32 -39 22 -57 971 -4948 965 -4973 -3 -15
-136 -191 -296 -392 -160 -201 -303 -387 -317 -415 -22 -42 -26 -63 -26 -135
0 -73 4 -92 27 -138 39 -75 90 -127 155 -159 l57 -28 3190 -3 c3017 -3 3192
-2 3223 15 42 21 62 59 62 117 0 39 -5 51 -35 81 l-36 35 -3142 2 c-3009 3
-3144 4 -3170 21 -37 24 -52 63 -40 107 10 39 540 712 570 725 10 4 1174 95
2587 201 l2569 194 32 24 c18 14 37 37 43 53 17 42 922 3542 929 3589 7 51
-16 97 -60 124 -32 20 -72 20 -2795 20 -2475 0 -2766 -2 -2793 -15 -64 -34
-87 -118 -49 -180 40 -65 -179 -60 2697 -65 2621 -5 2622 -5 2643 -25 44 -45
43 -57 -60 -453 -54 -206 -103 -384 -109 -396 -30 -54 142 -51 -2471 -56
-1936 -4 -2419 -8 -2437 -18 -31 -18 -53 -63 -53 -112 0 -32 7 -48 34 -78 l34
-37 2365 -5 2365 -5 25 -23 c14 -13 27 -36 30 -52 4 -18 -28 -159 -93 -411
-84 -324 -103 -386 -125 -408 l-25 -26 -2148 -5 c-1987 -5 -2150 -6 -2173 -22
-15 -9 -34 -33 -43 -53 -23 -47 -14 -95 24 -138 l28 -32 2090 -5 2091 -5 28
-21 c56 -42 55 -53 -56 -478 -61 -237 -108 -397 -119 -409 -9 -11 -28 -23 -41
-29 -23 -8 -4746 -368 -4837 -368 -46 0 -90 28 -104 66 -5 12 -131 645 -279
1406 -149 761 -367 1876 -485 2479 -141 723 -220 1106 -232 1123 -9 15 -29 33
-43 40 -42 22 -1376 416 -1407 416 -16 0 -43 -9 -61 -20z"/>
<path d="M3930 2345 c-30 -8 -91 -33 -135 -55 -143 -70 -245 -172 -315 -315
-60 -121 -73 -185 -68 -340 4 -115 8 -139 35 -206 82 -209 249 -365 458 -431
102 -33 289 -32 395 0 180 56 325 175 418 342 50 89 73 174 79 290 7 136 -12
225 -73 349 -79 159 -232 293 -404 352 -85 29 -305 37 -390 14z m262 -246
c341 -72 468 -497 222 -743 -211 -211 -583 -149 -708 118 -47 100 -57 197 -30
299 22 84 48 132 107 195 110 115 257 163 409 131z"/>
<path d="M7885 2346 c-129 -31 -284 -129 -370 -233 -108 -131 -158 -272 -159
-443 0 -130 14 -189 71 -309 38 -79 59 -108 131 -181 136 -135 270 -196 457
-206 131 -8 221 11 345 72 192 95 339 287 376 494 54 301 -93 604 -362 743
-50 26 -120 53 -155 62 -77 18 -263 19 -334 1z m268 -252 c162 -42 276 -150
318 -301 46 -166 2 -332 -119 -445 -65 -61 -139 -97 -228 -113 -74 -13 -90
-12 -179 7 -329 71 -447 495 -205 737 109 109 267 153 413 115z"/>
</g>
</svg>
