<?xml version="1.0" standalone="no"?>
<!DOCTYPE svg PUBLIC "-//W3C//DTD SVG 20010904//EN"
 "http://www.w3.org/TR/2001/REC-SVG-20010904/DTD/svg10.dtd">
<svg version="1.0" xmlns="http://www.w3.org/2000/svg"
 width="1080.000000pt" height="1080.000000pt" viewBox="0 0 1080.000000 1080.000000"
 preserveAspectRatio="xMidYMid meet">

<g transform="translate(0.000000,1080.000000) scale(0.100000,-0.100000)"
fill="#000000" stroke="none">
<path d="M1078 9854 c-174 -42 -294 -154 -354 -334 -18 -53 -19 -137 -22
-2120 -2 -1505 0 -2084 9 -2133 15 -91 67 -193 133 -259 115 -118 213 -148
477 -148 l179 0 2 -766 3 -766 33 -29 c26 -23 41 -29 80 -29 l47 0 795 795
795 795 1801 0 c1183 0 1820 4 1855 10 164 31 307 157 371 326 l23 59 0 2100
0 2100 -22 71 c-55 173 -185 292 -362 330 -98 20 -5757 19 -5843 -2z m5815
-215 c68 -17 131 -69 163 -136 l29 -58 3 -2060 c2 -2259 6 -2115 -57 -2201
-17 -22 -54 -53 -83 -70 l-53 -29 -1867 -5 -1868 -5 -713 -712 c-391 -392
-715 -713 -719 -713 -4 0 -9 308 -10 685 l-3 685 -28 27 -27 28 -273 5 c-166
4 -282 10 -297 17 -54 24 -106 72 -135 124 l-30 54 0 2085 0 2085 29 59 c31
63 87 112 154 133 50 16 5722 18 5785 2z"/>
<path d="M1934 8636 c-39 -39 -44 -77 -18 -127 32 -63 -107 -59 2089 -59 1726
0 2010 2 2040 14 72 30 85 129 24 180 l-31 26 -2035 0 -2035 0 -34 -34z"/>
<path d="M1933 7435 c-32 -32 -35 -40 -30 -76 3 -26 16 -52 33 -70 l28 -29
2039 0 2039 0 35 35 c32 32 35 39 30 78 -4 30 -15 50 -37 70 l-30 27 -2036 0
-2036 0 -35 -35z"/>
<path d="M1963 6265 c-70 -30 -82 -129 -22 -179 l31 -26 1142 0 c1259 0 1168
-5 1202 62 21 41 11 87 -27 124 l-30 29 -1132 2 c-958 2 -1137 0 -1164 -12z"/>
<path d="M7624 7452 c-61 -49 -55 -147 10 -181 15 -8 335 -12 1031 -13 948 -3
1012 -4 1050 -21 50 -23 110 -80 138 -132 l22 -40 0 -2095 0 -2095 -22 -41
c-22 -41 -82 -101 -125 -126 -17 -9 -94 -14 -295 -18 -256 -5 -273 -6 -300
-26 -54 -40 -53 -18 -53 -744 l0 -675 -713 713 c-556 556 -720 714 -747 722
-23 7 -674 10 -1868 10 -1623 0 -1837 2 -1869 15 -57 24 -100 61 -130 113
l-28 47 -5 842 c-5 834 -5 842 -26 870 -32 44 -69 58 -115 44 -21 -6 -47 -23
-59 -38 -20 -26 -21 -28 -18 -892 l3 -866 36 -75 c20 -41 53 -94 73 -117 51
-58 146 -119 223 -143 64 -20 91 -20 1887 -20 l1821 0 790 -790 c434 -434 802
-795 817 -801 38 -16 90 -4 119 27 l24 26 5 766 5 767 210 5 c223 6 260 13
352 66 102 59 200 201 223 323 6 35 10 784 10 2113 0 2285 4 2137 -66 2255
-66 109 -157 183 -272 222 -60 21 -78 21 -1089 21 -959 0 -1029 -2 -1049 -18z"/>
</g>
</svg>
