<?xml version="1.0" standalone="no"?>
<!DOCTYPE svg PUBLIC "-//W3C//DTD SVG 20010904//EN"
 "http://www.w3.org/TR/2001/REC-SVG-20010904/DTD/svg10.dtd">
<svg version="1.0" xmlns="http://www.w3.org/2000/svg"
 width="1080.000000pt" height="1080.000000pt" viewBox="0 0 1080.000000 1080.000000"
 preserveAspectRatio="xMidYMid meet">

<g transform="translate(0.000000,1080.000000) scale(0.100000,-0.100000)"
fill="#000000" stroke="none">
<path d="M778 8619 c-110 -26 -236 -123 -290 -225 -62 -116 -58 134 -58 -3309
0 -2790 2 -3147 15 -3200 36 -136 124 -241 252 -303 l78 -37 4650 0 4650 0 78
37 c128 61 217 168 253 303 20 74 20 6326 0 6400 -36 135 -125 242 -253 303
l-78 37 -4630 2 c-2658 0 -4646 -3 -4667 -8z m9287 -226 c52 -28 100 -78 119
-125 14 -33 16 -364 16 -3183 0 -2819 -2 -3150 -16 -3183 -19 -47 -67 -97
-119 -125 l-40 -22 -4575 -3 c-4101 -2 -4580 -1 -4628 13 -63 19 -123 69 -151
129 l-21 42 0 3149 c0 3123 0 3149 20 3190 28 58 80 105 142 126 51 18 209 18
4633 16 l4580 -2 40 -22z"/>
<path d="M3110 7835 c-387 -57 -735 -206 -1034 -443 -91 -72 -256 -237 -328
-328 -286 -361 -457 -829 -458 -1253 0 -136 11 -178 62 -236 82 -93 211 -117
317 -60 53 29 102 83 123 135 6 14 14 87 19 164 15 236 64 427 159 622 217
447 619 758 1120 865 89 20 135 23 305 23 170 0 216 -3 305 -23 135 -29 260
-71 382 -128 l97 -45 186 153 c103 85 199 164 213 175 l26 22 -54 34 c-275
176 -583 288 -900 327 -112 14 -434 12 -540 -4z"/>
<path d="M4249 6909 c-602 -496 -1113 -920 -1137 -942 -174 -169 -124 -472 95
-578 74 -36 159 -45 238 -26 95 24 156 66 224 156 32 42 419 569 861 1171 441
602 807 1101 813 1108 5 6 7 12 5 12 -3 0 -497 -405 -1099 -901z"/>
<path d="M6885 7655 c-36 -35 -34 -88 4 -126 l30 -29 1446 2 1447 3 24 28 c32
37 32 86 -1 121 l-24 26 -1451 0 -1451 0 -24 -25z"/>
<path d="M4891 6820 l-162 -219 25 -39 c40 -63 102 -192 130 -270 59 -164 83
-288 96 -489 7 -117 11 -137 36 -184 34 -61 87 -103 157 -124 64 -19 81 -19
146 1 65 19 136 81 165 144 17 38 20 63 18 165 -4 302 -79 600 -223 888 -63
127 -204 347 -222 347 -3 0 -78 -99 -166 -220z"/>
<path d="M6913 7025 c-74 -32 -72 -130 2 -161 51 -21 2839 -21 2890 0 76 32
76 130 0 162 -50 21 -2844 20 -2892 -1z"/>
<path d="M6914 6380 c-56 -22 -72 -103 -29 -145 l24 -25 1451 0 1451 0 24 26
c33 35 33 84 1 121 l-24 28 -1439 2 c-797 1 -1448 -2 -1459 -7z"/>
<path d="M6891 5714 c-49 -41 -41 -112 16 -142 16 -9 385 -12 1458 -12 l1437
0 29 29 c20 20 29 39 29 61 0 22 -9 41 -29 61 l-29 29 -1440 0 -1440 0 -31
-26z"/>
<path d="M8890 3390 l0 -990 -177 2 -178 3 -3 273 -2 272 -305 0 -305 0 0
-275 0 -275 -175 0 -175 0 0 810 0 810 -310 0 -310 0 0 -810 0 -810 -175 0
-175 0 0 430 0 430 -305 0 -305 0 0 -430 0 -430 -180 0 -180 0 0 -110 0 -110
2115 0 2115 0 0 110 0 110 -180 0 -180 0 0 990 0 990 -305 0 -305 0 0 -990z"/>
<path d="M1324 4234 c-128 -45 -195 -214 -134 -338 61 -126 217 -177 339 -111
180 99 172 353 -14 441 -58 28 -128 30 -191 8z"/>
<path d="M1965 4133 c-60 -16 -95 -67 -95 -138 0 -38 6 -52 34 -83 l34 -37
1356 -3 1355 -2 35 30 c82 73 63 191 -37 229 -29 11 -2640 14 -2682 4z"/>
<path d="M1324 3444 c-91 -32 -158 -133 -157 -236 2 -183 190 -296 356 -214
60 29 100 74 122 137 70 197 -122 383 -321 313z"/>
<path d="M1965 3343 c-60 -16 -95 -67 -95 -138 0 -38 6 -52 34 -83 l34 -37
1356 -3 1355 -2 35 30 c82 73 63 191 -37 229 -29 11 -2640 14 -2682 4z"/>
<path d="M1324 2654 c-91 -32 -158 -133 -157 -236 2 -183 190 -295 357 -214
60 29 99 74 121 137 70 197 -122 383 -321 313z"/>
<path d="M1965 2553 c-60 -16 -95 -67 -95 -138 0 -38 6 -52 34 -83 l34 -37
1361 0 1360 0 30 29 c77 73 55 189 -42 225 -29 11 -2640 14 -2682 4z"/>
</g>
</svg>
