<?xml version="1.0" standalone="no"?>
<!DOCTYPE svg PUBLIC "-//W3C//DTD SVG 20010904//EN"
 "http://www.w3.org/TR/2001/REC-SVG-20010904/DTD/svg10.dtd">
<svg version="1.0" xmlns="http://www.w3.org/2000/svg"
 width="1080.000000pt" height="1080.000000pt" viewBox="0 0 1080.000000 1080.000000"
 preserveAspectRatio="xMidYMid meet">

<g transform="translate(0.000000,1080.000000) scale(0.100000,-0.100000)"
fill="#000000" stroke="none">
<path d="M4315 9506 c-1254 -183 -2296 -336 -2315 -340 -100 -23 -221 -130
-260 -233 -37 -95 -31 -168 68 -843 49 -338 213 -1467 363 -2508 169 -1166
278 -1890 284 -1888 6 3 48 21 95 40 l85 35 3 58 c2 37 -126 948 -353 2513
-390 2702 -367 2500 -301 2566 18 18 50 37 71 43 86 24 4597 672 4632 665 45
-8 109 -65 122 -107 6 -18 26 -147 46 -287 19 -140 38 -265 40 -277 5 -22 9
-23 115 -23 66 0 110 4 110 10 0 42 -92 624 -104 659 -50 139 -189 239 -344
247 -62 2 -525 -62 -2357 -330z"/>
<path d="M3229 8547 c-101 -42 -172 -109 -218 -206 l-26 -56 -3 -2224 c-2
-2029 -1 -2223 14 -2217 8 3 58 6 110 6 l94 0 0 2183 0 2183 23 44 c14 30 36
53 62 67 l40 23 2377 -3 2377 -2 28 -21 c15 -11 38 -36 51 -54 l22 -33 0
-1558 0 -1559 110 0 110 0 -2 1588 -3 1587 -27 56 c-35 70 -117 152 -188 187
l-55 27 -2420 2 -2420 3 -56 -23z"/>
<path d="M3943 7360 c-51 -31 -55 -60 -51 -398 l3 -304 33 -29 32 -29 1734 0
1733 0 26 24 c14 13 29 35 32 48 3 12 5 164 3 335 l-3 313 -28 27 -27 28
-1728 3 c-1698 2 -1728 2 -1759 -18z m3315 -212 c13 -13 18 -281 6 -312 -6
-15 -153 -16 -1570 -16 l-1563 0 -11 21 c-18 33 -9 297 10 309 24 15 3113 13
3128 -2z"/>
<path d="M3937 5949 c-15 -11 -32 -37 -38 -58 -9 -32 -8 -44 6 -75 34 -71
-109 -66 1787 -66 1694 0 1713 0 1746 20 62 38 70 114 18 166 l-34 34 -1730 0
c-1729 0 -1729 0 -1755 -21z"/>
<path d="M3943 5390 c-47 -28 -62 -85 -37 -136 11 -22 30 -44 44 -51 20 -10
395 -13 1748 -13 l1724 0 34 34 c46 46 48 101 5 148 l-29 33 -1729 3 c-1699 2
-1729 2 -1760 -18z"/>
<path d="M3953 4834 c-31 -15 -63 -66 -63 -99 0 -25 27 -72 52 -89 20 -14 122
-16 914 -16 l892 0 11 47 c7 25 25 73 42 106 16 32 29 61 29 63 0 2 -415 4
-922 4 -818 0 -927 -2 -955 -16z"/>
<path d="M6361 4769 c-142 -28 -254 -144 -281 -290 -7 -37 -9 -607 -8 -1675
l3 -1619 23 -57 c32 -80 99 -150 180 -190 l67 -33 1175 0 1175 0 57 27 c79 37
142 98 181 177 l32 66 0 1665 0 1665 -27 58 c-37 78 -120 158 -195 189 l-58
23 -1140 2 c-627 0 -1160 -3 -1184 -8z m2317 -234 c18 -11 41 -38 52 -60 20
-41 20 -67 20 -1636 l0 -1595 -22 -44 c-45 -87 53 -80 -1200 -80 -1236 0
-1165 -4 -1210 69 l-23 36 -3 1580 c-2 869 0 1599 3 1623 8 52 53 108 99 121
18 6 489 9 1141 8 1087 -2 1111 -2 1143 -22z"/>
<path d="M6740 4133 c-23 -8 -70 -55 -86 -85 -11 -21 -14 -85 -14 -301 0 -268
1 -275 23 -308 12 -19 42 -44 67 -57 l45 -22 762 2 c755 3 762 3 790 24 15 11
38 36 51 54 22 32 22 39 22 314 l0 281 -24 36 c-49 73 -6 69 -858 68 -419 0
-770 -3 -778 -6z m1438 -377 c2 -121 -1 -161 -10 -168 -7 -4 -299 -8 -648 -8
-482 0 -639 3 -648 12 -13 13 -18 309 -5 321 3 4 299 6 657 5 l651 -3 3 -159z"/>
<path d="M6669 2771 c-23 -24 -29 -38 -29 -74 0 -90 57 -122 202 -115 84 4 90
6 121 36 27 27 32 40 32 78 0 39 -5 50 -33 75 -32 28 -34 29 -148 29 -114 0
-116 0 -145 -29z"/>
<path d="M7390 2787 c-51 -40 -63 -100 -30 -154 25 -42 74 -56 183 -52 100 5
136 24 151 81 12 46 1 84 -31 114 -24 23 -33 24 -142 24 -76 -1 -121 -5 -131
-13z"/>
<path d="M8091 2784 c-31 -22 -52 -75 -45 -113 3 -16 19 -42 35 -57 26 -25 37
-28 118 -32 144 -7 201 26 201 115 0 36 -6 50 -29 74 -29 29 -31 29 -143 29
-89 0 -119 -4 -137 -16z"/>
<path d="M6695 2228 c-62 -34 -75 -116 -26 -170 29 -33 30 -33 134 -36 82 -3
111 0 136 13 68 35 79 130 20 179 -29 24 -37 26 -137 26 -59 0 -116 -6 -127
-12z"/>
<path d="M7374 2206 c-52 -52 -44 -128 18 -166 29 -18 46 -21 141 -18 109 3
109 3 138 36 43 47 41 102 -5 148 l-34 34 -112 0 -112 0 -34 -34z"/>
<path d="M8088 2220 c-41 -31 -55 -88 -34 -132 27 -57 64 -71 183 -67 97 4
103 5 132 33 41 39 44 110 7 153 -24 27 -27 28 -143 31 -108 3 -121 2 -145
-18z"/>
<path d="M6674 1646 c-26 -26 -34 -42 -34 -70 0 -91 40 -116 182 -116 114 0
136 8 163 60 19 37 19 63 0 100 -25 48 -61 60 -176 60 l-101 0 -34 -34z"/>
<path d="M7405 1671 c-41 -18 -60 -51 -60 -103 0 -43 4 -53 33 -79 32 -28 35
-29 143 -29 l111 0 34 34 c46 46 48 101 5 148 l-29 33 -109 2 c-59 2 -117 -1
-128 -6z"/>
<path d="M8094 1661 c-42 -26 -60 -78 -44 -127 19 -58 57 -74 173 -74 141 0
177 23 177 112 -1 46 -10 64 -50 91 -37 26 -213 24 -256 -2z"/>
<path d="M3928 4251 c-28 -25 -33 -36 -33 -75 0 -38 5 -51 33 -78 l32 -33 885
-3 885 -2 0 110 0 110 -885 0 -885 0 -32 -29z"/>
<path d="M4050 3659 c52 -34 121 -83 153 -110 l59 -49 734 0 734 0 0 110 0
110 -887 0 -887 0 94 -61z"/>
<path d="M2947 3495 c-341 -56 -675 -270 -866 -556 -79 -117 -111 -180 -154
-305 -51 -146 -70 -265 -70 -429 0 -263 70 -503 207 -709 194 -291 473 -485
810 -564 96 -22 134 -26 281 -26 199 0 314 20 482 85 175 68 310 158 450 301
99 100 142 155 204 264 97 169 152 346 168 543 53 654 -374 1233 -1019 1382
-114 27 -371 34 -493 14z m385 -220 c243 -42 444 -149 613 -326 397 -418 398
-1069 1 -1486 -323 -341 -823 -437 -1242 -239 -214 101 -386 263 -497 466
-293 535 -79 1208 473 1487 191 97 442 135 652 98z"/>
<path d="M4575 3118 c14 -24 42 -73 61 -110 l34 -68 530 0 530 0 0 110 0 110
-591 0 -590 0 26 -42z"/>
<path d="M4784 2563 c3 -21 9 -71 13 -110 l6 -73 463 0 464 0 0 110 0 110
-476 0 -477 0 7 -37z"/>
<path d="M4523 1289 l-72 -109 646 0 c584 0 645 1 639 16 -3 9 -6 58 -6 110
l0 94 -567 -1 -568 -1 -72 -109z"/>
</g>
</svg>
