<?xml version="1.0" standalone="no"?>
<!DOCTYPE svg PUBLIC "-//W3C//DTD SVG 20010904//EN"
 "http://www.w3.org/TR/2001/REC-SVG-20010904/DTD/svg10.dtd">
<svg version="1.0" xmlns="http://www.w3.org/2000/svg"
 width="1080.000000pt" height="1080.000000pt" viewBox="0 0 1080.000000 1080.000000"
 preserveAspectRatio="xMidYMid meet">

<g transform="translate(0.000000,1080.000000) scale(0.100000,-0.100000)"
fill="#000000" stroke="none">
<path d="M2523 10080 c-60 -36 -63 -51 -63 -339 l0 -259 -192 -4 c-190 -3
-194 -3 -253 -32 -76 -38 -143 -105 -181 -181 l-29 -60 0 -4090 0 -4090 31
-65 c40 -83 102 -145 184 -184 l65 -31 2995 0 2995 0 67 32 c81 38 146 102
185 181 l28 57 3 378 3 377 272 0 c252 0 274 2 304 20 18 10 39 33 48 49 13
27 15 445 15 4096 0 3651 -2 4069 -15 4096 -9 16 -30 39 -48 49 -32 20 -76 20
-3207 20 -3131 0 -3175 0 -3207 -20z m6217 -4145 l0 -3905 -190 0 -190 0 0
2705 c0 2332 -2 2710 -14 2733 -18 33 -1972 1985 -2003 2001 -16 8 -529 11
-1822 11 l-1801 0 0 180 0 180 3010 0 3010 0 0 -3905z m-1573 2353 l933 -933
0 -3138 0 -3137 -34 -38 -34 -37 -2951 0 -2951 0 -32 33 -33 32 -3 4026 c-2
4416 -7 4068 56 4106 25 16 164 17 2072 18 l2045 0 932 -932z"/>
<path d="M2519 8667 c-41 -27 -59 -60 -59 -107 0 -47 18 -80 59 -107 l34 -23
874 2 875 3 34 37 c29 33 34 45 34 88 0 43 -5 55 -34 88 l-34 37 -875 3 -874
2 -34 -23z"/>
<path d="M2499 8001 c-33 -33 -39 -45 -39 -82 0 -56 30 -106 75 -125 29 -12
223 -14 1312 -14 1219 0 1280 1 1312 18 85 46 93 160 15 221 l-27 21 -1305 0
-1304 0 -39 -39z"/>
<path d="M2535 7381 c-92 -42 -102 -170 -18 -227 27 -18 75 -19 1725 -19
l1697 0 28 21 c40 29 67 87 59 129 -9 47 -50 92 -94 105 -25 6 -595 10 -1697
10 -1591 0 -1662 -1 -1700 -19z"/>
<path d="M2423 5980 c-68 -41 -63 160 -63 -2351 0 -2261 0 -2272 20 -2304 44
-70 -186 -65 2723 -65 2476 0 2624 1 2657 18 19 9 45 32 57 51 l23 34 0 2266
c0 2176 -1 2268 -18 2300 -10 19 -34 43 -53 53 -32 17 -136 18 -2674 18 -2601
0 -2640 0 -2672 -20z m1227 -460 l0 -220 -515 0 -515 0 0 220 0 220 515 0 515
0 0 -220z m1270 0 l0 -220 -505 0 -505 0 0 220 0 220 505 0 505 0 0 -220z
m1270 0 l0 -220 -505 0 -505 0 0 213 c0 118 3 217 7 220 3 4 231 7 505 7 l498
0 0 -220z m1388 -2 l2 -218 -560 0 -560 0 0 220 0 220 558 -2 557 -3 3 -217z
m-3930 -700 l2 -218 -515 0 -515 0 0 220 0 220 513 -2 512 -3 3 -217z m1272 2
l0 -220 -505 0 -505 0 0 213 c0 118 3 217 7 220 3 4 231 7 505 7 l498 0 0
-220z m1270 0 l0 -220 -502 2 -503 3 -3 205 c-1 112 0 210 2 217 4 10 109 13
506 13 l500 0 0 -220z m1385 0 l0 -215 -557 -3 -558 -2 0 220 0 220 558 -2
557 -3 0 -215z m-3925 -695 l0 -215 -515 0 -515 0 0 215 0 215 515 0 515 0 0
-215z m1270 0 l0 -215 -505 0 -505 0 0 215 0 215 505 0 505 0 0 -215z m1270 0
l0 -215 -505 0 -505 0 0 215 0 215 505 0 505 0 0 -215z m1390 0 l0 -215 -560
0 -560 0 0 215 0 215 560 0 560 0 0 -215z m-3930 -690 l0 -215 -515 0 -515 0
0 215 0 215 515 0 515 0 0 -215z m1270 0 l0 -215 -505 0 -505 0 0 215 0 215
505 0 505 0 0 -215z m1270 0 l0 -215 -505 0 -505 0 0 208 c0 115 3 212 7 215
3 4 231 7 505 7 l498 0 0 -215z m1388 -2 l2 -213 -560 0 -560 0 0 215 0 215
558 -2 557 -3 3 -212z m-3928 -698 l0 -215 -515 0 -515 0 0 215 0 215 515 0
515 0 0 -215z m1270 0 l0 -215 -505 0 -505 0 0 215 0 215 505 0 505 0 0 -215z
m1270 0 l0 -215 -505 0 -505 0 0 215 0 215 505 0 505 0 0 -215z m1390 0 l0
-215 -560 0 -560 0 0 215 0 215 560 0 560 0 0 -215z m0 -840 l0 -365 -2480 0
-2480 0 0 365 0 365 2480 0 2480 0 0 -365z"/>
</g>
</svg>
