<?xml version="1.0" standalone="no"?>
<!DOCTYPE svg PUBLIC "-//W3C//DTD SVG 20010904//EN"
 "http://www.w3.org/TR/2001/REC-SVG-20010904/DTD/svg10.dtd">
<svg version="1.0" xmlns="http://www.w3.org/2000/svg"
 width="1080.000000pt" height="1080.000000pt" viewBox="0 0 1080.000000 1080.000000"
 preserveAspectRatio="xMidYMid meet">

<g transform="translate(0.000000,1080.000000) scale(0.100000,-0.100000)"
fill="#000000" stroke="none">
<path d="M1259 7981 l-29 -29 0 -396 0 -395 23 -26 c18 -21 38 -29 99 -40 83
-14 150 -51 188 -104 46 -66 62 -162 40 -243 -26 -91 -125 -174 -221 -185 -68
-7 -107 -27 -119 -59 -6 -15 -10 -189 -10 -409 l0 -383 26 -31 c17 -20 35 -31
52 -31 46 0 127 -26 169 -54 150 -99 150 -343 0 -442 -42 -28 -123 -54 -169
-54 -17 0 -35 -11 -52 -31 l-26 -31 0 -383 c0 -220 4 -394 10 -409 12 -32 51
-52 119 -59 96 -11 195 -94 221 -185 47 -169 -50 -316 -228 -347 -61 -11 -81
-19 -99 -40 l-23 -26 0 -395 0 -396 29 -29 29 -29 4212 0 4212 0 29 29 29 29
0 396 0 395 -23 26 c-18 21 -38 29 -99 40 -83 14 -150 51 -188 104 -46 66 -62
162 -40 243 25 88 124 173 215 184 28 3 63 10 78 16 56 21 57 32 57 452 l0
384 -26 31 c-17 20 -35 31 -52 31 -46 0 -127 26 -169 54 -150 99 -150 343 0
442 42 28 123 54 169 54 17 0 35 11 52 31 l26 31 0 384 c0 420 -1 431 -57 452
-15 6 -50 13 -78 16 -91 11 -190 96 -215 184 -47 169 50 316 228 347 61 11 81
19 99 40 l23 26 0 395 0 396 -29 29 -29 29 -4212 0 -4212 0 -29 -29z m6478
-184 l28 -27 3 -335 3 -335 89 0 89 0 3 335 3 335 28 27 27 28 760 0 760 0 27
-28 28 -27 0 -229 c0 -265 5 -252 -105 -305 -176 -85 -281 -285 -251 -477 14
-86 69 -193 128 -251 26 -26 84 -67 128 -90 107 -58 107 -58 103 -338 -2 -169
-6 -220 -18 -237 -8 -13 -43 -36 -78 -53 -135 -64 -239 -202 -262 -346 -31
-194 78 -396 262 -484 35 -17 70 -40 78 -53 12 -17 16 -68 18 -237 4 -280 4
-280 -103 -338 -44 -23 -102 -64 -128 -90 -59 -58 -114 -165 -128 -251 -30
-192 75 -392 251 -477 110 -53 105 -40 105 -305 l0 -229 -28 -27 -27 -28 -760
0 -760 0 -27 28 -28 27 -3 335 -3 335 -89 0 -89 0 -3 -335 -3 -335 -28 -27
-27 -28 -3120 0 -3120 0 -27 28 -28 27 0 229 c0 265 -5 252 105 305 176 85
281 285 251 477 -14 86 -69 193 -128 251 -26 26 -84 67 -128 90 -107 58 -107
58 -103 338 2 169 6 220 18 237 8 13 43 36 78 53 135 64 239 202 262 346 31
194 -78 396 -262 484 -35 17 -70 40 -78 53 -12 17 -16 68 -18 237 -4 280 -4
280 103 338 44 23 102 64 128 90 59 58 114 165 128 251 30 192 -75 392 -251
477 -110 53 -105 40 -105 304 0 227 0 229 24 254 13 14 35 27 50 29 14 2 1420
4 3123 3 l3098 -1 27 -28z"/>
<path d="M7770 6105 l0 -455 90 0 90 0 0 455 0 455 -90 0 -90 0 0 -455z"/>
<path d="M3230 5375 l0 -995 90 0 90 0 0 995 0 995 -90 0 -90 0 0 -995z"/>
<path d="M3960 5375 l0 -995 90 0 90 0 0 995 0 995 -90 0 -90 0 0 -995z"/>
<path d="M4680 5375 l0 -995 90 0 90 0 0 995 0 995 -90 0 -90 0 0 -995z"/>
<path d="M5230 5375 l0 -995 90 0 90 0 0 995 0 995 -90 0 -90 0 0 -995z"/>
<path d="M5950 5375 l0 -995 95 0 95 0 0 995 0 995 -95 0 -95 0 0 -995z"/>
<path d="M7770 4645 l0 -455 90 0 90 0 0 455 0 455 -90 0 -90 0 0 -455z"/>
</g>
</svg>
