<?xml version="1.0" standalone="no"?>
<!DOCTYPE svg PUBLIC "-//W3C//DTD SVG 20010904//EN"
 "http://www.w3.org/TR/2001/REC-SVG-20010904/DTD/svg10.dtd">
<svg version="1.0" xmlns="http://www.w3.org/2000/svg"
 width="1080.000000pt" height="1080.000000pt" viewBox="0 0 1080.000000 1080.000000"
 preserveAspectRatio="xMidYMid meet">

<g transform="translate(0.000000,1080.000000) scale(0.100000,-0.100000)"
fill="#000000" stroke="none">
<path d="M3250 8816 c-630 -629 -1155 -1149 -1167 -1155 -14 -7 -97 -11 -225
-11 -158 0 -223 -4 -293 -19 -178 -37 -316 -114 -451 -253 -131 -134 -200
-261 -235 -433 -18 -86 -19 -195 -19 -2680 0 -2485 1 -2594 19 -2680 37 -181
115 -318 258 -456 98 -94 172 -143 283 -188 166 -66 -126 -62 3825 -59 l3580
3 88 28 c355 111 602 408 637 765 5 53 10 410 10 792 0 599 2 698 15 717 8 11
44 35 81 52 80 37 189 142 228 218 56 111 56 112 56 808 0 696 0 697 -56 808
-39 76 -148 181 -228 218 -37 17 -73 41 -81 52 -13 19 -15 118 -15 717 0 382
-5 739 -10 792 -35 357 -289 663 -636 763 -47 14 -96 25 -108 25 -82 0 -42
-37 -1251 1171 -1062 1061 -1153 1149 -1183 1149 -18 0 -43 -5 -55 -11 -12 -6
-214 -203 -449 -437 -422 -421 -428 -427 -468 -427 -40 0 -46 6 -468 427 -235
234 -437 431 -449 437 -12 6 -37 11 -55 11 -30 0 -120 -87 -1178 -1144z m1592
466 c350 -349 358 -358 358 -397 0 -39 -9 -49 -595 -635 l-595 -595 -707 -3
c-500 -2 -716 1 -735 9 -32 13 -53 59 -44 96 5 19 294 316 919 942 502 502
926 922 942 932 66 43 66 43 457 -349z m1566 354 c15 -8 440 -428 944 -933
628 -629 919 -927 924 -946 9 -37 -12 -83 -44 -96 -19 -8 -553 -11 -1884 -9
l-1857 3 -23 22 c-14 15 -22 35 -22 58 0 34 44 80 930 966 511 512 938 934
949 939 30 13 53 12 83 -4z m2457 -2240 c201 -74 320 -179 401 -351 63 -137
64 -148 64 -929 0 -723 -1 -744 -39 -763 -9 -4 -405 -10 -881 -13 l-865 -5
-100 -28 c-374 -102 -663 -384 -770 -752 -67 -233 -45 -515 59 -741 130 -281
403 -508 711 -592 l100 -27 865 -5 c476 -3 872 -9 881 -13 38 -19 39 -40 39
-763 0 -781 -1 -793 -64 -929 -81 -174 -198 -276 -401 -351 -48 -18 -170 -19
-3634 -22 l-3584 -2 -76 20 c-221 60 -394 231 -458 454 l-23 78 0 2602 c0
2901 -7 2648 72 2806 78 155 223 275 398 327 l75 22 3590 -2 c3471 -2 3592 -3
3640 -21z m683 -2306 c73 -33 99 -58 131 -122 l31 -61 0 -642 0 -642 -31 -62
c-34 -67 -86 -111 -159 -132 -23 -7 -366 -9 -1005 -7 l-970 3 -97 34 c-270 93
-460 285 -546 551 -137 423 87 888 503 1046 143 53 119 52 1145 53 928 1 956
0 998 -19z"/>
<path d="M7619 4557 c-87 -33 -161 -101 -195 -183 -24 -57 -23 -167 3 -224 29
-64 82 -121 144 -155 48 -27 63 -30 139 -30 76 0 91 3 139 30 107 59 163 153
163 270 0 117 -57 212 -163 269 -63 35 -170 45 -230 23z"/>
</g>
</svg>
