<?xml version="1.0" encoding="utf-8"?>
<!-- Generator: Adobe Illustrator 27.4.1, SVG Export Plug-In . SVG Version: 6.00 Build 0)  -->
<svg version="1.1" id="Layer_1" xmlns="http://www.w3.org/2000/svg" xmlns:xlink="http://www.w3.org/1999/xlink" x="0px" y="0px"
	 viewBox="0 0 264 60" style="enable-background:new 0 0 264 60;" xml:space="preserve">
<style type="text/css">
	.st0{fill:#023841;}
	.st1{fill:#54C3C0;}
	.st2{fill:url(#SVGID_1_);}
	.st3{fill:url(#SVGID_00000172407206437437073020000014166582894931009713_);}
	.st4{fill:url(#SVGID_00000127725522828781052660000011130890449775592840_);}
	.st5{fill:url(#SVGID_00000174586789915322809620000001467431855793065899_);}
	.st6{fill:url(#SVGID_00000087393999274497522420000009451986026162844856_);}
</style>
<g>
	<g>
		<path class="st0" d="M61.02,28.43l-2.45,2.34c-1.67-1.76-3.54-2.64-5.63-2.64c-1.76,0-3.24,0.6-4.45,1.8
			c-1.21,1.2-1.81,2.69-1.81,4.45c0,1.23,0.27,2.32,0.8,3.27c0.53,0.95,1.29,1.7,2.26,2.24c0.98,0.54,2.06,0.81,3.25,0.81
			c1.02,0,1.95-0.19,2.79-0.57c0.84-0.38,1.77-1.07,2.78-2.07l2.38,2.48c-1.36,1.33-2.65,2.25-3.86,2.76
			c-1.21,0.51-2.59,0.77-4.14,0.77c-2.86,0-5.21-0.91-7.03-2.72c-1.82-1.82-2.74-4.14-2.74-6.98c0-1.84,0.41-3.47,1.25-4.9
			c0.83-1.43,2.02-2.58,3.57-3.44c1.55-0.87,3.22-1.3,5-1.3c1.52,0,2.98,0.32,4.39,0.96C58.79,26.34,60.01,27.25,61.02,28.43z"/>
		<path class="st0" d="M63.34,24.73h3.42v18.88h-3.42V24.73z"/>
		<path class="st0" d="M69.85,29.99h3.46v6.56c0,1.28,0.09,2.16,0.26,2.66c0.18,0.5,0.46,0.88,0.85,1.16
			c0.39,0.28,0.87,0.41,1.44,0.41s1.05-0.14,1.45-0.41c0.4-0.27,0.69-0.67,0.89-1.2c0.14-0.39,0.21-1.23,0.21-2.52v-6.67h3.42v5.77
			c0,2.38-0.19,4.01-0.56,4.88c-0.46,1.07-1.14,1.89-2.03,2.46c-0.89,0.57-2.03,0.86-3.41,0.86c-1.49,0-2.7-0.33-3.62-1
			c-0.92-0.67-1.57-1.6-1.95-2.79c-0.27-0.83-0.4-2.33-0.4-4.51V29.99z"/>
		<path class="st0" d="M88.65,24.73v6.76c0.62-0.62,1.29-1.08,2-1.39c0.72-0.31,1.49-0.46,2.3-0.46c1.78,0,3.29,0.67,4.53,2.02
			c1.24,1.34,1.87,3.07,1.87,5.17c0,2.03-0.64,3.73-1.93,5.09c-1.29,1.37-2.81,2.05-4.57,2.05c-0.78,0-1.51-0.14-2.19-0.42
			c-0.68-0.28-1.35-0.74-2.02-1.37v1.44h-3.39V24.73H88.65z M92.24,32.8c-1.08,0-1.97,0.37-2.68,1.1c-0.71,0.73-1.06,1.69-1.06,2.88
			c0,1.21,0.35,2.19,1.06,2.94c0.71,0.75,1.6,1.12,2.68,1.12c1.04,0,1.92-0.38,2.64-1.14c0.71-0.76,1.07-1.73,1.07-2.91
			c0-1.17-0.35-2.13-1.05-2.87C94.19,33.17,93.31,32.8,92.24,32.8z"/>
		<path class="st0" d="M104.35,25.2h3.42l4.27,12.85l4.31-12.85h3.41l3.09,18.42h-3.39l-1.98-11.63l-3.91,11.63h-3.09l-3.88-11.63
			l-2.02,11.63h-3.42L104.35,25.2z"/>
		<path class="st0" d="M138.91,37.79h-10.98c0.16,0.97,0.58,1.74,1.27,2.31c0.69,0.57,1.57,0.86,2.64,0.86
			c1.28,0,2.38-0.45,3.29-1.34l2.88,1.35c-0.72,1.02-1.58,1.77-2.58,2.26c-1,0.49-2.19,0.73-3.57,0.73c-2.14,0-3.88-0.67-5.22-2.02
			c-1.34-1.35-2.02-3.04-2.02-5.07c0-2.08,0.67-3.8,2.01-5.18s3.02-2.06,5.04-2.06c2.15,0,3.89,0.69,5.23,2.06s2.02,3.19,2.02,5.44
			L138.91,37.79z M135.49,35.1c-0.23-0.76-0.67-1.38-1.34-1.85c-0.66-0.48-1.44-0.71-2.31-0.71c-0.95,0-1.79,0.27-2.51,0.8
			c-0.45,0.33-0.87,0.92-1.25,1.77H135.49z"/>
		<path class="st0" d="M141.65,29.99h3.42v1.57c0.58-0.64,1.23-1.12,1.95-1.44c0.71-0.32,1.49-0.48,2.34-0.48
			c0.85,0,1.62,0.21,2.31,0.63c0.68,0.42,1.24,1.03,1.65,1.83c0.54-0.8,1.21-1.41,2-1.83c0.79-0.42,1.65-0.63,2.59-0.63
			c0.97,0,1.82,0.23,2.56,0.68s1.26,1.04,1.59,1.77c0.32,0.73,0.48,1.91,0.48,3.54v7.99h-3.44V36.7c0-1.54-0.19-2.59-0.58-3.14
			c-0.38-0.55-0.96-0.82-1.73-0.82c-0.58,0-1.11,0.17-1.57,0.5c-0.46,0.33-0.81,0.8-1.03,1.38c-0.23,0.59-0.34,1.53-0.34,2.84v6.15
			h-3.44v-6.6c0-1.22-0.09-2.1-0.27-2.65c-0.18-0.55-0.45-0.95-0.81-1.22c-0.36-0.27-0.79-0.4-1.31-0.4c-0.57,0-1.09,0.17-1.55,0.51
			c-0.46,0.34-0.81,0.81-1.04,1.42c-0.23,0.61-0.35,1.57-0.35,2.88v6.06h-3.42V29.99z"/>
		<path class="st0" d="M169.18,24.73v6.76c0.62-0.62,1.29-1.08,2-1.39c0.72-0.31,1.49-0.46,2.3-0.46c1.78,0,3.29,0.67,4.53,2.02
			c1.24,1.34,1.87,3.07,1.87,5.17c0,2.03-0.64,3.73-1.93,5.09c-1.29,1.37-2.81,2.05-4.57,2.05c-0.78,0-1.52-0.14-2.19-0.42
			c-0.68-0.28-1.35-0.74-2.02-1.37v1.44h-3.39V24.73H169.18z M172.77,32.8c-1.08,0-1.97,0.37-2.68,1.1
			c-0.71,0.73-1.06,1.69-1.06,2.88c0,1.21,0.35,2.19,1.06,2.94c0.71,0.75,1.6,1.12,2.68,1.12c1.04,0,1.92-0.38,2.64-1.14
			c0.71-0.76,1.07-1.73,1.07-2.91c0-1.17-0.35-2.13-1.05-2.87C174.72,33.17,173.84,32.8,172.77,32.8z"/>
		<path class="st0" d="M196.36,37.79h-10.98c0.16,0.97,0.58,1.74,1.27,2.31c0.69,0.57,1.57,0.86,2.64,0.86
			c1.28,0,2.38-0.45,3.29-1.34l2.88,1.35c-0.72,1.02-1.58,1.77-2.58,2.26c-1,0.49-2.19,0.73-3.57,0.73c-2.14,0-3.88-0.67-5.22-2.02
			c-1.34-1.35-2.02-3.04-2.02-5.07c0-2.08,0.67-3.8,2.01-5.18s3.02-2.06,5.04-2.06c2.15,0,3.89,0.69,5.23,2.06s2.02,3.19,2.02,5.44
			L196.36,37.79z M192.94,35.1c-0.23-0.76-0.67-1.38-1.34-1.85c-0.66-0.48-1.44-0.71-2.31-0.71c-0.95,0-1.79,0.27-2.51,0.8
			c-0.45,0.33-0.87,0.92-1.25,1.77H192.94z"/>
		<path class="st0" d="M198.33,29.99h2.93v1.72c0.32-0.68,0.74-1.19,1.26-1.54c0.53-0.35,1.1-0.53,1.73-0.53
			c0.44,0,0.91,0.12,1.39,0.35l-1.06,2.94c-0.4-0.2-0.73-0.3-0.99-0.3c-0.53,0-0.97,0.33-1.33,0.98c-0.36,0.65-0.54,1.93-0.54,3.83
			l0.01,0.66v5.51h-3.39V29.99z"/>
		<path class="st1" d="M209.2,40.05c0.54,0,1.01,0.19,1.39,0.57s0.58,0.84,0.58,1.38c0,0.54-0.19,1.01-0.58,1.39
			c-0.38,0.38-0.85,0.58-1.39,0.58c-0.54,0-1.01-0.19-1.39-0.58c-0.38-0.38-0.58-0.85-0.58-1.39c0-0.54,0.19-1,0.58-1.38
			S208.65,40.05,209.2,40.05z"/>
		<path class="st1" d="M224.56,29.99h3.42v13.62h-3.42v-1.44c-0.67,0.63-1.34,1.09-2.01,1.37c-0.67,0.28-1.4,0.42-2.18,0.42
			c-1.76,0-3.28-0.68-4.57-2.05c-1.28-1.36-1.93-3.06-1.93-5.09c0-2.1,0.62-3.83,1.86-5.17c1.24-1.34,2.75-2.02,4.53-2.02
			c0.82,0,1.58,0.15,2.3,0.46c0.72,0.31,1.38,0.77,1.99,1.39V29.99z M220.97,32.8c-1.06,0-1.93,0.37-2.63,1.12
			c-0.7,0.75-1.05,1.7-1.05,2.87c0,1.18,0.36,2.15,1.07,2.91c0.71,0.76,1.59,1.14,2.63,1.14c1.07,0,1.96-0.37,2.67-1.12
			c0.71-0.75,1.06-1.73,1.06-2.94c0-1.19-0.35-2.15-1.06-2.88C222.94,33.17,222.05,32.8,220.97,32.8z"/>
		<path class="st1" d="M234.83,29.99v1.5c0.62-0.62,1.29-1.08,2-1.39c0.72-0.31,1.49-0.46,2.3-0.46c1.78,0,3.29,0.67,4.53,2.02
			c1.24,1.34,1.87,3.07,1.87,5.17c0,2.03-0.64,3.73-1.93,5.09c-1.29,1.37-2.81,2.05-4.57,2.05c-0.78,0-1.52-0.14-2.19-0.42
			c-0.68-0.28-1.35-0.74-2.02-1.37v6.42h-3.39V29.99H234.83z M238.42,32.8c-1.08,0-1.97,0.37-2.68,1.1
			c-0.71,0.73-1.06,1.69-1.06,2.88c0,1.21,0.35,2.19,1.06,2.94c0.71,0.75,1.6,1.12,2.68,1.12c1.04,0,1.92-0.38,2.64-1.14
			c0.71-0.76,1.07-1.73,1.07-2.91c0-1.17-0.35-2.13-1.05-2.87C240.37,33.17,239.49,32.8,238.42,32.8z"/>
		<path class="st1" d="M251.76,29.99v1.5c0.62-0.62,1.29-1.08,2-1.39c0.72-0.31,1.49-0.46,2.3-0.46c1.78,0,3.29,0.67,4.53,2.02
			c1.24,1.34,1.87,3.07,1.87,5.17c0,2.03-0.64,3.73-1.93,5.09c-1.29,1.37-2.81,2.05-4.57,2.05c-0.78,0-1.52-0.14-2.19-0.42
			c-0.68-0.28-1.35-0.74-2.02-1.37v6.42h-3.39V29.99H251.76z M255.35,32.8c-1.08,0-1.97,0.37-2.68,1.1
			c-0.71,0.73-1.06,1.69-1.06,2.88c0,1.21,0.35,2.19,1.06,2.94c0.71,0.75,1.6,1.12,2.68,1.12c1.04,0,1.92-0.38,2.64-1.14
			c0.71-0.76,1.07-1.73,1.07-2.91c0-1.17-0.35-2.13-1.05-2.87C257.3,33.17,256.42,32.8,255.35,32.8z"/>
	</g>
	<g>
		<linearGradient id="SVGID_1_" gradientUnits="userSpaceOnUse" x1="3.7068" y1="22.5836" x2="32.1464" y2="22.5836">
			<stop  offset="0" style="stop-color:#54C3C0"/>
			<stop  offset="0.6776" style="stop-color:#023841;stop-opacity:0.9"/>
		</linearGradient>
		<path class="st2" d="M20.21,12.24c-4.04,0-7.32,3.29-7.32,7.32v10.78c0.4,0.1,0.8,0.22,1.19,0.36c1.36,0.51,2.58,1.27,3.6,2.23
			V19.56c0-1.4,1.13-2.53,2.53-2.53c1.3,0,2.36,0.97,2.51,2.23c1.03-0.97,2.25-1.74,3.62-2.25c0.21-0.08,0.43-0.15,0.64-0.21
			C25.89,14.12,23.27,12.24,20.21,12.24z"/>
		
			<linearGradient id="SVGID_00000011727566202374790030000007788613751494303414_" gradientUnits="userSpaceOnUse" x1="3.7068" y1="38.5903" x2="32.1464" y2="38.5903">
			<stop  offset="0" style="stop-color:#54C3C0"/>
			<stop  offset="0.6776" style="stop-color:#023841;stop-opacity:0.9"/>
		</linearGradient>
		<path style="fill:url(#SVGID_00000011727566202374790030000007788613751494303414_);" d="M37.39,27.21V51.8
			c0,1.32-1.07,2.4-2.4,2.4l0,0c-1.32,0-2.4-1.07-2.4-2.4V27.15c0-1.37-1.07-2.54-2.44-2.59c-1.44-0.05-2.62,1.1-2.62,2.53v23
			c0,3.15-2,5.84-4.79,6.87c-0.79,0.29-1.64,0.45-2.53,0.45c-0.89,0-1.74-0.16-2.53-0.45c-2.79-1.03-4.79-3.72-4.79-6.87v-9.25
			c0-1.37-1.07-2.54-2.44-2.59C9,38.2,7.82,39.35,7.82,40.78v6.78c0,1.32-1.07,2.4-2.4,2.4l0,0c-1.32,0-2.4-1.07-2.4-2.4V40.9
			c0-4.05,3.24-7.42,7.29-7.44c0.9,0,1.77,0.16,2.56,0.45c2.79,1.03,4.79,3.72,4.79,6.87v9.25c0,1.37,1.07,2.54,2.44,2.59
			c1.44,0.05,2.62-1.1,2.62-2.53v-23c0-3.15,2-5.84,4.79-6.87c0.8-0.3,1.66-0.46,2.56-0.45C34.15,19.78,37.39,23.16,37.39,27.21z"/>
		
			<linearGradient id="SVGID_00000078727880066995990560000014128024454781908367_" gradientUnits="userSpaceOnUse" x1="3.7068" y1="6.214" x2="32.1464" y2="6.214">
			<stop  offset="0" style="stop-color:#54C3C0"/>
			<stop  offset="0.6776" style="stop-color:#023841;stop-opacity:0.9"/>
		</linearGradient>
		<circle style="fill:url(#SVGID_00000078727880066995990560000014128024454781908367_);" cx="20.48" cy="6.21" r="3.63"/>
		
			<linearGradient id="SVGID_00000156577281405237374560000000442508570976909236_" gradientUnits="userSpaceOnUse" x1="3.7068" y1="13.8832" x2="32.1464" y2="13.8832">
			<stop  offset="0" style="stop-color:#54C3C0"/>
			<stop  offset="0.6776" style="stop-color:#023841;stop-opacity:0.9"/>
		</linearGradient>
		<circle style="fill:url(#SVGID_00000156577281405237374560000000442508570976909236_);" cx="35.47" cy="13.88" r="3.93"/>
		
			<linearGradient id="SVGID_00000172435341452100646220000013605127264567757221_" gradientUnits="userSpaceOnUse" x1="3.7068" y1="23.7013" x2="32.1464" y2="23.7013">
			<stop  offset="0" style="stop-color:#54C3C0"/>
			<stop  offset="0.6776" style="stop-color:#023841;stop-opacity:0.9"/>
		</linearGradient>
		<circle style="fill:url(#SVGID_00000172435341452100646220000013605127264567757221_);" cx="5.47" cy="23.7" r="3.93"/>
	</g>
</g>
</svg>
